<svg width="72" height="72" viewBox="0 0 72 72" fill="none" xmlns="http://www.w3.org/2000/svg">
<path d="M36 1C55.33 1 71 16.6692 71 36C71 55.3308 55.33 71 36 71C16.67 71 1 55.3308 1 36C1 16.6692 16.67 1 36 1Z" stroke="#E6E6E6" stroke-width="2" stroke-miterlimit="8"/>
<path d="M26.3161 48.4155C24.5618 48.4155 23.0561 47.9716 21.799 47.0838C20.549 46.1889 19.5866 44.8999 18.9119 43.2166C18.2443 41.5263 17.9105 39.4915 17.9105 37.1122C17.9176 34.733 18.255 32.7088 18.9226 31.0398C19.5973 29.3636 20.5597 28.0852 21.8097 27.2045C23.0668 26.3239 24.5689 25.8835 26.3161 25.8835C28.0632 25.8835 29.5653 26.3239 30.8224 27.2045C32.0795 28.0852 33.0419 29.3636 33.7095 31.0398C34.3842 32.7159 34.7216 34.7401 34.7216 37.1122C34.7216 39.4986 34.3842 41.5369 33.7095 43.2273C33.0419 44.9105 32.0795 46.196 30.8224 47.0838C29.5724 47.9716 28.0703 48.4155 26.3161 48.4155ZM26.3161 45.081C27.6797 45.081 28.7557 44.4098 29.544 43.0675C30.3395 41.718 30.7372 39.733 30.7372 37.1122C30.7372 35.3793 30.5561 33.9233 30.1939 32.7443C29.8317 31.5653 29.3203 30.6776 28.6598 30.081C27.9993 29.4773 27.218 29.1754 26.3161 29.1754C24.9595 29.1754 23.8871 29.8501 23.0987 31.1996C22.3104 32.5419 21.9126 34.5128 21.9055 37.1122C21.8984 38.8523 22.0724 40.3153 22.4276 41.5014C22.7898 42.6875 23.3011 43.5824 23.9616 44.1861C24.6222 44.7827 25.407 45.081 26.3161 45.081ZM46.0169 48.2983C44.4331 48.2983 43.0268 48.032 41.7981 47.4993C40.5765 46.9666 39.6177 46.2386 38.9217 45.3153C38.2328 44.3849 37.8919 43.3303 37.899 42.1513C37.8919 41.2351 38.0907 40.3935 38.4956 39.6264C38.9004 38.8594 39.4473 38.2202 40.1362 37.7088C40.8322 37.1903 41.6064 36.8601 42.4586 36.718V36.5689C41.3365 36.3203 40.4274 35.7486 39.7314 34.8537C39.0424 33.9517 38.7015 32.9112 38.7086 31.7322C38.7015 30.6101 39.014 29.6087 39.6461 28.728C40.2782 27.8473 41.1447 27.1548 42.2456 26.6506C43.3464 26.1392 44.6035 25.8835 46.0169 25.8835C47.416 25.8835 48.6625 26.1392 49.7562 26.6506C50.8571 27.1548 51.7235 27.8473 52.3556 28.728C52.9949 29.6087 53.3145 30.6101 53.3145 31.7322C53.3145 32.9112 52.9629 33.9517 52.2598 34.8537C51.5637 35.7486 50.6653 36.3203 49.5645 36.5689V36.718C50.4167 36.8601 51.1838 37.1903 51.8656 37.7088C52.5545 38.2202 53.1014 38.8594 53.5062 39.6264C53.9181 40.3935 54.1241 41.2351 54.1241 42.1513C54.1241 43.3303 53.7761 44.3849 53.0801 45.3153C52.3841 46.2386 51.4252 46.9666 50.2037 47.4993C48.9892 48.032 47.5936 48.2983 46.0169 48.2983ZM46.0169 45.2514C46.8336 45.2514 47.5439 45.1129 48.1476 44.8359C48.7512 44.5518 49.22 44.1541 49.5538 43.6428C49.8876 43.1314 50.0581 42.5419 50.0652 41.8743C50.0581 41.1783 49.877 40.5639 49.5218 40.0312C49.1738 39.4915 48.6944 39.0689 48.0836 38.7635C47.4799 38.4581 46.791 38.3054 46.0169 38.3054C45.2356 38.3054 44.5396 38.4581 43.9288 38.7635C43.318 39.0689 42.835 39.4915 42.4799 40.0312C42.1319 40.5639 41.9615 41.1783 41.9686 41.8743C41.9615 42.5419 42.1248 43.1314 42.4586 43.6428C42.7924 44.147 43.2612 44.5412 43.8649 44.8253C44.4757 45.1094 45.193 45.2514 46.0169 45.2514ZM46.0169 35.3118C46.6845 35.3118 47.274 35.1768 47.7853 34.907C48.3038 34.6371 48.7122 34.2607 49.0105 33.7777C49.3088 33.2947 49.4615 32.7372 49.4686 32.1051C49.4615 31.4801 49.3123 30.9332 49.0211 30.4645C48.7299 29.9886 48.3251 29.6229 47.8066 29.3672C47.2882 29.1044 46.6916 28.973 46.0169 28.973C45.3279 28.973 44.7207 29.1044 44.1951 29.3672C43.6767 29.6229 43.2718 29.9886 42.9806 30.4645C42.6966 30.9332 42.5581 31.4801 42.5652 32.1051C42.5581 32.7372 42.7001 33.2947 42.9913 33.7777C43.2896 34.2536 43.698 34.63 44.2164 34.907C44.742 35.1768 45.3422 35.3118 46.0169 35.3118Z" fill="#E6E6E6"/>
</svg>
