<svg width="72" height="72" viewBox="0 0 72 72" fill="none" xmlns="http://www.w3.org/2000/svg">
<path d="M36 1C55.33 1 71 16.6692 71 36C71 55.3308 55.33 71 36 71C16.67 71 1 55.3308 1 36C1 16.6692 16.67 1 36 1Z" stroke="#785AFF" stroke-width="2" stroke-miterlimit="8"/>
<path d="M26.2721 48.4155C24.5178 48.4155 23.0122 47.9716 21.7551 47.0838C20.5051 46.1889 19.5427 44.8999 18.868 43.2166C18.2004 41.5263 17.8666 39.4915 17.8666 37.1122C17.8737 34.733 18.211 32.7088 18.8786 31.0398C19.5534 29.3636 20.5157 28.0852 21.7657 27.2045C23.0228 26.3239 24.5249 25.8835 26.2721 25.8835C28.0193 25.8835 29.5214 26.3239 30.7785 27.2045C32.0356 28.0852 32.998 29.3636 33.6656 31.0398C34.3403 32.7159 34.6776 34.7401 34.6776 37.1122C34.6776 39.4986 34.3403 41.5369 33.6656 43.2273C32.998 44.9105 32.0356 46.196 30.7785 47.0838C29.5285 47.9716 28.0264 48.4155 26.2721 48.4155ZM26.2721 45.081C27.6357 45.081 28.7117 44.4098 29.5001 43.0675C30.2955 41.718 30.6933 39.733 30.6933 37.1122C30.6933 35.3793 30.5122 33.9233 30.1499 32.7443C29.7877 31.5653 29.2764 30.6776 28.6159 30.081C27.9553 29.4773 27.1741 29.1754 26.2721 29.1754C24.9156 29.1754 23.8431 29.8501 23.0548 31.1996C22.2664 32.5419 21.8687 34.5128 21.8616 37.1122C21.8545 38.8523 22.0285 40.3153 22.3836 41.5014C22.7458 42.6875 23.2572 43.5824 23.9177 44.1861C24.5782 44.7827 25.363 45.081 26.2721 45.081ZM46.2073 48.2983C45.1633 48.2912 44.1441 48.1101 43.1498 47.755C42.1555 47.3928 41.2606 46.8068 40.4651 45.9972C39.6697 45.1804 39.0376 44.0973 38.5688 42.7479C38.1001 41.3913 37.8692 39.7116 37.8763 37.7088C37.8763 35.8409 38.0752 34.1754 38.4729 32.7124C38.8706 31.2493 39.4424 30.0135 40.1881 29.005C40.9339 27.9893 41.8323 27.2152 42.8834 26.6825C43.9417 26.1499 45.1242 25.8835 46.431 25.8835C47.8018 25.8835 49.0162 26.1534 50.0745 26.6932C51.1398 27.233 51.9992 27.9716 52.6526 28.9091C53.306 29.8395 53.7108 30.8906 53.8671 32.0625H49.9786C49.7797 31.2244 49.3714 30.5568 48.7535 30.0597C48.1427 29.5554 47.3685 29.3033 46.431 29.3033C44.9182 29.3033 43.7535 29.9602 42.9367 31.2741C42.127 32.5881 41.7187 34.392 41.7116 36.6861H41.8607C42.2087 36.0611 42.6597 35.5249 43.2137 35.0774C43.7677 34.63 44.3927 34.2855 45.0887 34.044C45.7918 33.7955 46.534 33.6712 47.3153 33.6712C48.5937 33.6712 49.7407 33.9766 50.7563 34.5874C51.779 35.1982 52.5887 36.0398 53.1853 37.1122C53.7819 38.1776 54.0766 39.3991 54.0695 40.777C54.0766 42.2116 53.7499 43.5007 53.0894 44.6442C52.4289 45.7805 51.5091 46.6754 50.3302 47.3288C49.1512 47.9822 47.7769 48.3054 46.2073 48.2983ZM46.186 45.1023C46.9601 45.1023 47.6526 44.9141 48.2634 44.5376C48.8742 44.1612 49.3572 43.6534 49.7123 43.0142C50.0674 42.375 50.2414 41.6577 50.2343 40.8622C50.2414 40.081 50.0709 39.3743 49.7229 38.7422C49.382 38.1101 48.9097 37.6094 48.306 37.2401C47.7023 36.8707 47.0134 36.6861 46.2393 36.6861C45.664 36.6861 45.1278 36.7962 44.6306 37.0163C44.1334 37.2365 43.7002 37.5419 43.3309 37.9325C42.9616 38.3161 42.6704 38.7635 42.4573 39.2749C42.2513 39.7791 42.1448 40.3189 42.1377 40.8942C42.1448 41.6541 42.3224 42.3537 42.6704 42.9929C43.0184 43.6321 43.4978 44.1435 44.1086 44.527C44.7194 44.9105 45.4118 45.1023 46.186 45.1023Z" fill="#785AFF"/>
</svg>
