<svg width="72" height="72" viewBox="0 0 72 72" fill="none" xmlns="http://www.w3.org/2000/svg">
<path d="M36 1C55.33 1 71 16.6692 71 36C71 55.3308 55.33 71 36 71C16.67 71 1 55.3308 1 36C1 16.6692 16.67 1 36 1Z" stroke="#E6E6E6" stroke-width="2" stroke-miterlimit="8"/>
<path d="M26.0084 48.4155C24.2542 48.4155 22.7485 47.9716 21.4914 47.0838C20.2414 46.1889 19.279 44.8999 18.6043 43.2166C17.9367 41.5263 17.6029 39.4915 17.6029 37.1122C17.61 34.733 17.9474 32.7088 18.615 31.0398C19.2897 29.3636 20.252 28.0852 21.502 27.2045C22.7591 26.3239 24.2613 25.8835 26.0084 25.8835C27.7556 25.8835 29.2577 26.3239 30.5148 27.2045C31.7719 28.0852 32.7343 29.3636 33.4019 31.0398C34.0766 32.7159 34.414 34.7401 34.414 37.1122C34.414 39.4986 34.0766 41.5369 33.4019 43.2273C32.7343 44.9105 31.7719 46.196 30.5148 47.0838C29.2648 47.9716 27.7627 48.4155 26.0084 48.4155ZM26.0084 45.081C27.3721 45.081 28.4481 44.4098 29.2364 43.0675C30.0319 41.718 30.4296 39.733 30.4296 37.1122C30.4296 35.3793 30.2485 33.9233 29.8863 32.7443C29.5241 31.5653 29.0127 30.6776 28.3522 30.081C27.6917 29.4773 26.9104 29.1754 26.0084 29.1754C24.6519 29.1754 23.5795 29.8501 22.7911 31.1996C22.0028 32.5419 21.605 34.5128 21.5979 37.1122C21.5908 38.8523 21.7648 40.3153 22.1199 41.5014C22.4822 42.6875 22.9935 43.5824 23.654 44.1861C24.3145 44.7827 25.0993 45.081 26.0084 45.081ZM37.5594 43.9517V40.8089L46.8172 26.1818H49.4379V30.6562H47.8399L41.6077 40.532V40.7024H54.5303V43.9517H37.5594ZM47.9678 48V42.9929L48.0104 41.5866V26.1818H51.7391V48H47.9678Z" fill="#E6E6E6"/>
</svg>
