<svg width="72" height="72" viewBox="0 0 72 72" fill="none" xmlns="http://www.w3.org/2000/svg">
<path d="M36 1C55.33 1 71 16.6692 71 36C71 55.3308 55.33 71 36 71C16.67 71 1 55.3308 1 36C1 16.6692 16.67 1 36 1Z" stroke="#785AFF" stroke-width="2" stroke-miterlimit="8"/>
<path d="M30.1013 26.1818V48H26.1489V30.0277H26.021L20.9181 33.2876V29.6655L26.3406 26.1818H30.1013ZM43.7057 48.4155C41.9514 48.4155 40.4458 47.9716 39.1887 47.0838C37.9387 46.1889 36.9763 44.8999 36.3016 43.2166C35.634 41.5263 35.3002 39.4915 35.3002 37.1122C35.3073 34.733 35.6446 32.7088 36.3122 31.0398C36.9869 29.3636 37.9493 28.0852 39.1993 27.2045C40.4564 26.3239 41.9585 25.8835 43.7057 25.8835C45.4529 25.8835 46.955 26.3239 48.2121 27.2045C49.4692 28.0852 50.4316 29.3636 51.0992 31.0398C51.7739 32.7159 52.1112 34.7401 52.1112 37.1122C52.1112 39.4986 51.7739 41.5369 51.0992 43.2273C50.4316 44.9105 49.4692 46.196 48.2121 47.0838C46.9621 47.9716 45.46 48.4155 43.7057 48.4155ZM43.7057 45.081C45.0693 45.081 46.1453 44.4098 46.9337 43.0675C47.7291 41.718 48.1269 39.733 48.1269 37.1122C48.1269 35.3793 47.9458 33.9233 47.5835 32.7443C47.2213 31.5653 46.71 30.6776 46.0494 30.081C45.3889 29.4773 44.6077 29.1754 43.7057 29.1754C42.3492 29.1754 41.2767 29.8501 40.4884 31.1996C39.7 32.5419 39.3023 34.5128 39.2952 37.1122C39.2881 38.8523 39.4621 40.3153 39.8172 41.5014C40.1794 42.6875 40.6908 43.5824 41.3513 44.1861C42.0118 44.7827 42.7966 45.081 43.7057 45.081Z" fill="#785AFF"/>
</svg>
