<svg width="72" height="72" viewBox="0 0 72 72" fill="none" xmlns="http://www.w3.org/2000/svg">
<path d="M36 1C55.33 1 71 16.6692 71 36C71 55.3308 55.33 71 36 71C16.67 71 1 55.3308 1 36C1 16.6692 16.67 1 36 1Z" stroke="#E6E6E6" stroke-width="2" stroke-miterlimit="8"/>
<path d="M27.4879 48.4155C25.7337 48.4155 24.228 47.9716 22.9709 47.0838C21.7209 46.1889 20.7585 44.8999 20.0838 43.2166C19.4162 41.5263 19.0824 39.4915 19.0824 37.1122C19.0895 34.733 19.4268 32.7088 20.0945 31.0398C20.7692 29.3636 21.7315 28.0852 22.9815 27.2045C24.2386 26.3239 25.7408 25.8835 27.4879 25.8835C29.2351 25.8835 30.7372 26.3239 31.9943 27.2045C33.2514 28.0852 34.2138 29.3636 34.8814 31.0398C35.5561 32.7159 35.8935 34.7401 35.8935 37.1122C35.8935 39.4986 35.5561 41.5369 34.8814 43.2273C34.2138 44.9105 33.2514 46.196 31.9943 47.0838C30.7443 47.9716 29.2422 48.4155 27.4879 48.4155ZM27.4879 45.081C28.8516 45.081 29.9276 44.4098 30.7159 43.0675C31.5114 41.718 31.9091 39.733 31.9091 37.1122C31.9091 35.3793 31.728 33.9233 31.3658 32.7443C31.0036 31.5653 30.4922 30.6776 29.8317 30.081C29.1712 29.4773 28.3899 29.1754 27.4879 29.1754C26.1314 29.1754 25.0589 29.8501 24.2706 31.1996C23.4822 32.5419 23.0845 34.5128 23.0774 37.1122C23.0703 38.8523 23.2443 40.3153 23.5994 41.5014C23.9616 42.6875 24.473 43.5824 25.1335 44.1861C25.794 44.7827 26.5788 45.081 27.4879 45.081ZM39.6461 48L48.9252 29.6335V29.4844H38.1547V26.1818H53.0162V29.5589L43.7477 48H39.6461Z" fill="#E6E6E6"/>
</svg>
