<svg width="72" height="72" viewBox="0 0 72 72" fill="none" xmlns="http://www.w3.org/2000/svg">
<path d="M36 1C55.33 1 71 16.6692 71 36C71 55.3308 55.33 71 36 71C16.67 71 1 55.3308 1 36C1 16.6692 16.67 1 36 1Z" stroke="#785AFF" stroke-width="2" stroke-miterlimit="8"/>
<path d="M27.0065 48.4155C25.2522 48.4155 23.7465 47.9716 22.4894 47.0838C21.2394 46.1889 20.2771 44.8999 19.6024 43.2166C18.9347 41.5263 18.6009 39.4915 18.6009 37.1122C18.608 34.733 18.9454 32.7088 19.613 31.0398C20.2877 29.3636 21.2501 28.0852 22.5001 27.2045C23.7572 26.3239 25.2593 25.8835 27.0065 25.8835C28.7536 25.8835 30.2558 26.3239 31.5129 27.2045C32.77 28.0852 33.7323 29.3636 34.3999 31.0398C35.0747 32.7159 35.412 34.7401 35.412 37.1122C35.412 39.4986 35.0747 41.5369 34.3999 43.2273C33.7323 44.9105 32.77 46.196 31.5129 47.0838C30.2629 47.9716 28.7607 48.4155 27.0065 48.4155ZM27.0065 45.081C28.3701 45.081 29.4461 44.4098 30.2345 43.0675C31.0299 41.718 31.4276 39.733 31.4276 37.1122C31.4276 35.3793 31.2465 33.9233 30.8843 32.7443C30.5221 31.5653 30.0107 30.6776 29.3502 30.081C28.6897 29.4773 27.9085 29.1754 27.0065 29.1754C25.6499 29.1754 24.5775 29.8501 23.7892 31.1996C23.0008 32.5419 22.6031 34.5128 22.596 37.1122C22.5889 38.8523 22.7629 40.3153 23.118 41.5014C23.4802 42.6875 23.9916 43.5824 24.6521 44.1861C25.3126 44.7827 26.0974 45.081 27.0065 45.081ZM46.5368 48.2983C45.1164 48.2983 43.8451 48.032 42.7229 47.4993C41.6008 46.9595 40.7094 46.2209 40.0489 45.2834C39.3955 44.3459 39.0475 43.2734 39.0049 42.0661H42.8401C42.9111 42.9609 43.2982 43.6925 44.0013 44.2607C44.7045 44.8217 45.5496 45.1023 46.5368 45.1023C47.311 45.1023 47.9999 44.9247 48.6036 44.5696C49.2073 44.2145 49.6832 43.7209 50.0312 43.0888C50.3792 42.4567 50.5496 41.7358 50.5425 40.9261C50.5496 40.1023 50.3756 39.3707 50.0205 38.7315C49.6654 38.0923 49.1789 37.5916 48.561 37.2294C47.9431 36.8601 47.2329 36.6754 46.4303 36.6754C45.7769 36.6683 45.1341 36.7891 44.502 37.0376C43.8699 37.2862 43.3692 37.6129 42.9999 38.0178L39.431 37.4318L40.5709 26.1818H53.2272V29.4844H43.8415L43.213 35.2692H43.3408C43.7456 34.7933 44.3174 34.3991 45.056 34.0866C45.7947 33.767 46.6043 33.6072 47.485 33.6072C48.806 33.6072 49.985 33.9197 51.0219 34.5447C52.0589 35.1626 52.8756 36.0149 53.4722 37.1016C54.0688 38.1882 54.3671 39.4311 54.3671 40.8303C54.3671 42.272 54.0333 43.5575 53.3657 44.6868C52.7052 45.8089 51.7854 46.6932 50.6064 47.3395C49.4346 47.9787 48.078 48.2983 46.5368 48.2983Z" fill="#785AFF"/>
</svg>
