<svg width="72" height="72" viewBox="0 0 72 72" fill="none" xmlns="http://www.w3.org/2000/svg">
<path d="M36 1C55.33 1 71 16.6692 71 36C71 55.3308 55.33 71 36 71C16.67 71 1 55.3308 1 36C1 16.6692 16.67 1 36 1Z" stroke="#785AFF" stroke-width="2" stroke-miterlimit="8"/>
<path d="M26.2282 48.4155C24.4739 48.4155 22.9682 47.9716 21.7111 47.0838C20.4611 46.1889 19.4988 44.8999 18.824 43.2166C18.1564 41.5263 17.8226 39.4915 17.8226 37.1122C17.8297 34.733 18.1671 32.7088 18.8347 31.0398C19.5094 29.3636 20.4718 28.0852 21.7218 27.2045C22.9789 26.3239 24.481 25.8835 26.2282 25.8835C27.9753 25.8835 29.4775 26.3239 30.7346 27.2045C31.9917 28.0852 32.954 29.3636 33.6216 31.0398C34.2963 32.7159 34.6337 34.7401 34.6337 37.1122C34.6337 39.4986 34.2963 41.5369 33.6216 43.2273C32.954 44.9105 31.9917 46.196 30.7346 47.0838C29.4846 47.9716 27.9824 48.4155 26.2282 48.4155ZM26.2282 45.081C27.5918 45.081 28.6678 44.4098 29.4561 43.0675C30.2516 41.718 30.6493 39.733 30.6493 37.1122C30.6493 35.3793 30.4682 33.9233 30.106 32.7443C29.7438 31.5653 29.2324 30.6776 28.5719 30.081C27.9114 29.4773 27.1301 29.1754 26.2282 29.1754C24.8716 29.1754 23.7992 29.8501 23.0108 31.1996C22.2225 32.5419 21.8248 34.5128 21.8176 37.1122C21.8105 38.8523 21.9846 40.3153 22.3397 41.5014C22.7019 42.6875 23.2132 43.5824 23.8738 44.1861C24.5343 44.7827 25.3191 45.081 26.2282 45.081ZM46.0036 48.2983C44.4695 48.2983 43.1058 48.0355 41.9126 47.5099C40.7266 46.9844 39.7891 46.2528 39.1001 45.3153C38.4112 44.3778 38.0455 43.2947 38.0028 42.0661H42.0085C42.044 42.6555 42.2393 43.1705 42.5945 43.6108C42.9496 44.044 43.4219 44.3814 44.0114 44.6229C44.6009 44.8643 45.2614 44.9851 45.9929 44.9851C46.7741 44.9851 47.4666 44.8501 48.0703 44.5803C48.674 44.3033 49.1463 43.9197 49.4872 43.4297C49.8281 42.9396 49.995 42.375 49.9879 41.7358C49.995 41.0753 49.8246 40.4929 49.4766 39.9886C49.1286 39.4844 48.6243 39.0902 47.9638 38.8061C47.3104 38.522 46.522 38.38 45.5987 38.38H43.6705V35.3331H45.5987C46.3587 35.3331 47.0227 35.2017 47.5909 34.9389C48.1662 34.6761 48.6172 34.3068 48.9439 33.831C49.2706 33.348 49.4304 32.7905 49.4233 32.1584C49.4304 31.5405 49.2919 31.0043 49.0078 30.5497C48.7308 30.0881 48.3366 29.7294 47.8253 29.4737C47.321 29.218 46.728 29.0902 46.0462 29.0902C45.3786 29.0902 44.7607 29.2109 44.1925 29.4524C43.6243 29.6939 43.1662 30.0384 42.8182 30.4858C42.4702 30.9261 42.2855 31.4517 42.2642 32.0625H38.4609C38.4893 30.8409 38.8409 29.7685 39.5156 28.8452C40.1974 27.9148 41.1065 27.1903 42.2429 26.6719C43.3793 26.1463 44.6541 25.8835 46.0675 25.8835C47.5234 25.8835 48.7876 26.157 49.8601 26.7038C50.9396 27.2436 51.7741 27.9716 52.3636 28.8878C52.9531 29.804 53.2479 30.8161 53.2479 31.924C53.255 33.1527 52.8928 34.1825 52.1612 35.0135C51.4368 35.8445 50.4851 36.3878 49.3061 36.6435V36.8139C50.8402 37.027 52.0156 37.5952 52.8324 38.5185C53.6563 39.4347 54.0646 40.5746 54.0575 41.9382C54.0575 43.1598 53.7095 44.2536 53.0135 45.2195C52.3246 46.1783 51.3729 46.9311 50.1584 47.478C48.951 48.0249 47.5661 48.2983 46.0036 48.2983Z" fill="#785AFF"/>
</svg>
