<svg width="72" height="72" viewBox="0 0 72 72" fill="none" xmlns="http://www.w3.org/2000/svg">
<path d="M36 1C55.33 1 71 16.6692 71 36C71 55.3308 55.33 71 36 71C16.67 71 1 55.3308 1 36C1 16.6692 16.67 1 36 1Z" stroke="#785AFF" stroke-width="2" stroke-miterlimit="8"/>
<path d="M29.2916 48.4155C27.5374 48.4155 26.0317 47.9716 24.7746 47.0838C23.5246 46.1889 22.5622 44.8999 21.8875 43.2166C21.2199 41.5263 20.8861 39.4915 20.8861 37.1122C20.8932 34.733 21.2306 32.7088 21.8982 31.0398C22.5729 29.3636 23.5352 28.0852 24.7852 27.2045C26.0423 26.3239 27.5445 25.8835 29.2916 25.8835C31.0388 25.8835 32.5409 26.3239 33.798 27.2045C35.0551 28.0852 36.0175 29.3636 36.6851 31.0398C37.3598 32.7159 37.6972 34.7401 37.6972 37.1122C37.6972 39.4986 37.3598 41.5369 36.6851 43.2273C36.0175 44.9105 35.0551 46.196 33.798 47.0838C32.548 47.9716 31.0459 48.4155 29.2916 48.4155ZM29.2916 45.081C30.6553 45.081 31.7313 44.4098 32.5196 43.0675C33.3151 41.718 33.7128 39.733 33.7128 37.1122C33.7128 35.3793 33.5317 33.9233 33.1695 32.7443C32.8073 31.5653 32.2959 30.6776 31.6354 30.081C30.9749 29.4773 30.1936 29.1754 29.2916 29.1754C27.9351 29.1754 26.8627 29.8501 26.0743 31.1996C25.286 32.5419 24.8882 34.5128 24.8811 37.1122C24.874 38.8523 25.048 40.3153 25.4031 41.5014C25.7654 42.6875 26.2767 43.5824 26.9372 44.1861C27.5977 44.7827 28.3825 45.081 29.2916 45.081ZM50.1111 26.1818V48H46.1586V30.0277H46.0308L40.9278 33.2876V29.6655L46.3504 26.1818H50.1111Z" fill="#785AFF"/>
</svg>
