<svg width="72" height="72" viewBox="0 0 72 72" fill="none" xmlns="http://www.w3.org/2000/svg">
<path d="M36 1C55.33 1 71 16.6692 71 36C71 55.3308 55.33 71 36 71C16.67 71 1 55.3308 1 36C1 16.6692 16.67 1 36 1Z" stroke="#785AFF" stroke-width="2" stroke-miterlimit="8"/>
<path d="M26.2721 48.4155C24.5178 48.4155 23.0122 47.9716 21.7551 47.0838C20.5051 46.1889 19.5427 44.8999 18.868 43.2166C18.2004 41.5263 17.8666 39.4915 17.8666 37.1122C17.8737 34.733 18.211 32.7088 18.8786 31.0398C19.5534 29.3636 20.5157 28.0852 21.7657 27.2045C23.0228 26.3239 24.5249 25.8835 26.2721 25.8835C28.0193 25.8835 29.5214 26.3239 30.7785 27.2045C32.0356 28.0852 32.998 29.3636 33.6656 31.0398C34.3403 32.7159 34.6776 34.7401 34.6776 37.1122C34.6776 39.4986 34.3403 41.5369 33.6656 43.2273C32.998 44.9105 32.0356 46.196 30.7785 47.0838C29.5285 47.9716 28.0264 48.4155 26.2721 48.4155ZM26.2721 45.081C27.6357 45.081 28.7117 44.4098 29.5001 43.0675C30.2955 41.718 30.6933 39.733 30.6933 37.1122C30.6933 35.3793 30.5122 33.9233 30.1499 32.7443C29.7877 31.5653 29.2764 30.6776 28.6159 30.081C27.9553 29.4773 27.1741 29.1754 26.2721 29.1754C24.9156 29.1754 23.8431 29.8501 23.0548 31.1996C22.2664 32.5419 21.8687 34.5128 21.8616 37.1122C21.8545 38.8523 22.0285 40.3153 22.3836 41.5014C22.7458 42.6875 23.2572 43.5824 23.9177 44.1861C24.5782 44.7827 25.363 45.081 26.2721 45.081ZM45.7918 25.8835C46.8358 25.8906 47.8515 26.0753 48.8387 26.4375C49.833 26.7926 50.7279 27.375 51.5233 28.1847C52.3188 28.9872 52.9509 30.0632 53.4197 31.4126C53.8884 32.7621 54.1228 34.4311 54.1228 36.4197C54.1299 38.2947 53.931 39.9709 53.5262 41.4482C53.1285 42.9183 52.5567 44.1612 51.811 45.1768C51.0653 46.1925 50.1668 46.9666 49.1157 47.4993C48.0645 48.032 46.882 48.2983 45.5681 48.2983C44.1903 48.2983 42.9687 48.0284 41.9033 47.4886C40.8451 46.9489 39.9893 46.2102 39.3358 45.2727C38.6824 44.3352 38.2812 43.2628 38.132 42.0554H42.0205C42.2194 42.9219 42.6242 43.6108 43.235 44.1222C43.8529 44.6264 44.6306 44.8786 45.5681 44.8786C47.0809 44.8786 48.2457 44.2216 49.0624 42.9077C49.8792 41.5937 50.2876 39.7685 50.2876 37.4318H50.1384C49.7904 38.0568 49.3394 38.5966 48.7854 39.0511C48.2314 39.4986 47.6029 39.843 46.8998 40.0845C46.2037 40.326 45.4651 40.4467 44.6839 40.4467C43.4055 40.4467 42.2549 40.1413 41.2322 39.5305C40.2165 38.9197 39.4104 38.0817 38.8138 37.0163C38.2243 35.951 37.926 34.733 37.9189 33.3622C37.9189 31.9418 38.2456 30.6669 38.8991 29.5376C39.5596 28.4013 40.4793 27.5064 41.6583 26.853C42.8373 26.1925 44.2151 25.8693 45.7918 25.8835ZM45.8025 29.0795C45.0354 29.0795 44.343 29.2678 43.7251 29.6442C43.1143 30.0135 42.6313 30.5178 42.2762 31.157C41.9282 31.7891 41.7542 32.4957 41.7542 33.277C41.7613 34.0511 41.9353 34.7543 42.2762 35.3864C42.6242 36.0185 43.0965 36.5192 43.6931 36.8885C44.2968 37.2578 44.9857 37.4425 45.7599 37.4425C46.3351 37.4425 46.8714 37.3324 47.3685 37.1122C47.8657 36.892 48.2989 36.5866 48.6682 36.196C49.0447 35.7983 49.3358 35.3473 49.5418 34.843C49.7549 34.3388 49.8579 33.8061 49.8508 33.245C49.8508 32.4993 49.6732 31.8104 49.3181 31.1783C48.9701 30.5462 48.4907 30.0384 47.8799 29.6548C47.2762 29.2713 46.5837 29.0795 45.8025 29.0795Z" fill="#785AFF"/>
</svg>
