<svg width="72" height="72" viewBox="0 0 72 72" fill="none" xmlns="http://www.w3.org/2000/svg">
<path d="M36 1C55.33 1 71 16.6692 71 36C71 55.3308 55.33 71 36 71C16.67 71 1 55.3308 1 36C1 16.6692 16.67 1 36 1Z" stroke="#E6E6E6" stroke-width="2" stroke-miterlimit="8"/>
<path d="M27.1823 48.4155C25.428 48.4155 23.9223 47.9716 22.6652 47.0838C21.4152 46.1889 20.4529 44.8999 19.7781 43.2166C19.1105 41.5263 18.7767 39.4915 18.7767 37.1122C18.7838 34.733 19.1212 32.7088 19.7888 31.0398C20.4635 29.3636 21.4259 28.0852 22.6759 27.2045C23.933 26.3239 25.4351 25.8835 27.1823 25.8835C28.9294 25.8835 30.4316 26.3239 31.6887 27.2045C32.9458 28.0852 33.9081 29.3636 34.5757 31.0398C35.2504 32.7159 35.5878 34.7401 35.5878 37.1122C35.5878 39.4986 35.2504 41.5369 34.5757 43.2273C33.9081 44.9105 32.9458 46.196 31.6887 47.0838C30.4387 47.9716 28.9365 48.4155 27.1823 48.4155ZM27.1823 45.081C28.5459 45.081 29.6219 44.4098 30.4102 43.0675C31.2057 41.718 31.6034 39.733 31.6034 37.1122C31.6034 35.3793 31.4223 33.9233 31.0601 32.7443C30.6979 31.5653 30.1865 30.6776 29.526 30.081C28.8655 29.4773 28.0843 29.1754 27.1823 29.1754C25.8257 29.1754 24.7533 29.8501 23.9649 31.1996C23.1766 32.5419 22.7789 34.5128 22.7718 37.1122C22.7646 38.8523 22.9387 40.3153 23.2938 41.5014C23.656 42.6875 24.1673 43.5824 24.8279 44.1861C25.4884 44.7827 26.2732 45.081 27.1823 45.081ZM39.1274 48V45.1449L46.702 37.7195C47.4264 36.9879 48.0301 36.3381 48.5131 35.7699C48.996 35.2017 49.3582 34.6513 49.5997 34.1186C49.8412 33.5859 49.9619 33.0178 49.9619 32.4141C49.9619 31.7251 49.8057 31.1357 49.4932 30.6456C49.1807 30.1484 48.751 29.7649 48.2041 29.495C47.6572 29.2251 47.0358 29.0902 46.3398 29.0902C45.6224 29.0902 44.9939 29.2393 44.4541 29.5376C43.9143 29.8288 43.4953 30.2443 43.197 30.7841C42.9058 31.3239 42.7602 31.9666 42.7602 32.7124H38.9996C38.9996 31.3274 39.3156 30.1236 39.9477 29.1009C40.5798 28.0781 41.4498 27.2862 42.5578 26.7251C43.6729 26.1641 44.9513 25.8835 46.393 25.8835C47.8561 25.8835 49.1416 26.157 50.2496 26.7038C51.3575 27.2507 52.2169 28 52.8277 28.9517C53.4456 29.9034 53.7545 30.9901 53.7545 32.2116C53.7545 33.0284 53.5983 33.831 53.2858 34.6193C52.9733 35.4077 52.4229 36.2812 51.6345 37.2401C50.8532 38.1989 49.7559 39.3601 48.3426 40.7237L44.5819 44.5483V44.6974H54.0848V48H39.1274Z" fill="#E6E6E6"/>
</svg>
