<svg width="101" height="56" viewBox="0 0 101 56" fill="none" xmlns="http://www.w3.org/2000/svg">
<rect width="101" height="56" fill="#785AFF"/>
<path d="M22.6227 17.1818H27.4593L33.9366 32.9915H34.1923L40.6696 17.1818H45.5062V39H41.7136V24.0107H41.5112L35.4814 38.9361H32.6476L26.6177 23.9787H26.4153V39H22.6227V17.1818ZM54.3485 39.3303C53.3116 39.3303 52.3777 39.1456 51.5467 38.7763C50.7228 38.3999 50.0694 37.8459 49.5865 37.1143C49.1106 36.3828 48.8727 35.4808 48.8727 34.4084C48.8727 33.4851 49.0431 32.7216 49.3841 32.1179C49.725 31.5142 50.1902 31.0312 50.7797 30.669C51.3691 30.3068 52.0332 30.0334 52.7718 29.8487C53.5176 29.657 54.2882 29.5185 55.0836 29.4332C56.0424 29.3338 56.8201 29.245 57.4167 29.1669C58.0133 29.0817 58.4466 28.9538 58.7164 28.7834C58.9934 28.6058 59.1319 28.3324 59.1319 27.9631V27.8991C59.1319 27.0966 58.894 26.4751 58.4181 26.0348C57.9423 25.5945 57.2569 25.3743 56.362 25.3743C55.4174 25.3743 54.6681 25.5803 54.1142 25.9922C53.5673 26.4041 53.198 26.8906 53.0062 27.4517L49.4054 26.9403C49.6895 25.946 50.1582 25.1151 50.8116 24.4474C51.465 23.7727 52.264 23.2685 53.2086 22.9347C54.1532 22.5938 55.1973 22.4233 56.3407 22.4233C57.1291 22.4233 57.9139 22.5156 58.6951 22.7003C59.4764 22.8849 60.1902 23.1903 60.8365 23.6165C61.4828 24.0355 62.0012 24.6072 62.3919 25.3317C62.7896 26.0561 62.9885 26.9616 62.9885 28.0483V39H59.2811V36.7521H59.1532C58.9189 37.2067 58.5886 37.6328 58.1625 38.0305C57.7434 38.4212 57.2143 38.7372 56.5751 38.9787C55.943 39.2131 55.2008 39.3303 54.3485 39.3303ZM55.35 36.4964C56.1241 36.4964 56.7953 36.3437 57.3635 36.0384C57.9316 35.7259 58.3684 35.3139 58.6738 34.8026C58.9863 34.2912 59.1426 33.7337 59.1426 33.13V31.2017C59.0218 31.3011 58.8159 31.3935 58.5247 31.4787C58.2406 31.5639 57.921 31.6385 57.5659 31.7024C57.2108 31.7663 56.8592 31.8232 56.5112 31.8729C56.1632 31.9226 55.8613 31.9652 55.6056 32.0007C55.0304 32.0788 54.5154 32.2067 54.0609 32.3842C53.6064 32.5618 53.2477 32.8104 52.9849 33.13C52.7221 33.4425 52.5907 33.8473 52.5907 34.3445C52.5907 35.0547 52.85 35.5909 53.3684 35.9531C53.8869 36.3153 54.5474 36.4964 55.35 36.4964ZM66.8663 39V22.6364H70.7228V39H66.8663ZM68.8052 20.3139C68.1944 20.3139 67.6689 20.1115 67.2285 19.7067C66.7882 19.2947 66.568 18.8011 66.568 18.2259C66.568 17.6435 66.7882 17.1499 67.2285 16.745C67.6689 16.3331 68.1944 16.1271 68.8052 16.1271C69.4231 16.1271 69.9487 16.3331 70.3819 16.745C70.8223 17.1499 71.0424 17.6435 71.0424 18.2259C71.0424 18.8011 70.8223 19.2947 70.3819 19.7067C69.9487 20.1115 69.4231 20.3139 68.8052 20.3139ZM78.5451 17.1818V39H74.6886V17.1818H78.5451Z" fill="white"/>
</svg>
