<svg width="168" height="56" viewBox="0 0 168 56" fill="none" xmlns="http://www.w3.org/2000/svg">
<rect width="168" height="56" fill="#785AFF"/>
<path d="M17.532 20.495V17.1818H34.9397V20.495H28.1961V39H24.2757V20.495H17.532ZM42.9964 39.3196C41.3557 39.3196 39.9388 38.9787 38.7457 38.2969C37.5596 37.608 36.6469 36.6349 36.0077 35.3778C35.3685 34.1136 35.0489 32.6257 35.0489 30.9141C35.0489 29.2308 35.3685 27.7536 36.0077 26.4822C36.654 25.2038 37.556 24.2095 38.7137 23.4993C39.8714 22.782 41.2314 22.4233 42.7939 22.4233C43.8025 22.4233 44.7542 22.5866 45.6491 22.9134C46.551 23.233 47.3465 23.7301 48.0354 24.4048C48.7314 25.0795 49.2783 25.9389 49.676 26.983C50.0738 28.0199 50.2726 29.2557 50.2726 30.6903V31.8729H36.86V29.2734H46.5759C46.5688 28.5348 46.409 27.8778 46.0965 27.3026C45.784 26.7202 45.3472 26.2621 44.7861 25.9283C44.2322 25.5945 43.5858 25.4276 42.8472 25.4276C42.0589 25.4276 41.3664 25.6193 40.7698 26.0028C40.1732 26.3793 39.708 26.8764 39.3742 27.4943C39.0475 28.1051 38.8806 28.7763 38.8735 29.5078V31.777C38.8735 32.7287 39.0475 33.5455 39.3955 34.2273C39.7435 34.902 40.23 35.4205 40.855 35.7827C41.48 36.1378 42.2116 36.3153 43.0496 36.3153C43.6107 36.3153 44.1185 36.2372 44.5731 36.081C45.0276 35.9176 45.4218 35.6797 45.7556 35.3672C46.0894 35.0547 46.3415 34.6676 46.512 34.206L50.1128 34.6108C49.8856 35.5625 49.4523 36.3935 48.8131 37.1037C48.181 37.8068 47.3714 38.3537 46.3841 38.7443C45.3969 39.1278 44.2677 39.3196 42.9964 39.3196ZM57.3918 17.1818V39H53.5352V17.1818H57.3918ZM68.6018 39.3196C66.9612 39.3196 65.5443 38.9787 64.3511 38.2969C63.165 37.608 62.2524 36.6349 61.6132 35.3778C60.974 34.1136 60.6544 32.6257 60.6544 30.9141C60.6544 29.2308 60.974 27.7536 61.6132 26.4822C62.2595 25.2038 63.1615 24.2095 64.3192 23.4993C65.4768 22.782 66.8369 22.4233 68.3994 22.4233C69.4079 22.4233 70.3596 22.5866 71.2545 22.9134C72.1565 23.233 72.952 23.7301 73.6409 24.4048C74.3369 25.0795 74.8838 25.9389 75.2815 26.983C75.6792 28.0199 75.8781 29.2557 75.8781 30.6903V31.8729H62.4655V29.2734H72.1814C72.1743 28.5348 72.0145 27.8778 71.702 27.3026C71.3895 26.7202 70.9527 26.2621 70.3916 25.9283C69.8376 25.5945 69.1913 25.4276 68.4527 25.4276C67.6643 25.4276 66.9719 25.6193 66.3753 26.0028C65.7787 26.3793 65.3135 26.8764 64.9797 27.4943C64.653 28.1051 64.4861 28.7763 64.479 29.5078V31.777C64.479 32.7287 64.653 33.5455 65.001 34.2273C65.349 34.902 65.8355 35.4205 66.4605 35.7827C67.0855 36.1378 67.817 36.3153 68.6551 36.3153C69.2162 36.3153 69.724 36.2372 70.1785 36.081C70.6331 35.9176 71.0273 35.6797 71.3611 35.3672C71.6949 35.0547 71.947 34.6676 72.1175 34.206L75.7183 34.6108C75.491 35.5625 75.0578 36.3935 74.4186 37.1037C73.7865 37.8068 72.9768 38.3537 71.9896 38.7443C71.0024 39.1278 69.8731 39.3196 68.6018 39.3196ZM86.2572 45.4773C84.8722 45.4773 83.6826 45.2891 82.6883 44.9126C81.694 44.5433 80.895 44.0462 80.2913 43.4212C79.6876 42.7962 79.2686 42.1037 79.0342 41.3438L82.5072 40.5021C82.6634 40.8217 82.8907 41.1378 83.189 41.4503C83.4873 41.7699 83.8886 42.0327 84.3928 42.2386C84.9042 42.4517 85.547 42.5582 86.3211 42.5582C87.4149 42.5582 88.3204 42.2919 89.0377 41.7592C89.7551 41.2337 90.1137 40.3672 90.1137 39.1598V36.0597H89.922C89.7231 36.4574 89.4319 36.8658 89.0484 37.2848C88.672 37.7038 88.1713 38.0554 87.5463 38.3395C86.9284 38.6236 86.1507 38.7656 85.2132 38.7656C83.9561 38.7656 82.8161 38.4709 81.7934 37.8814C80.7778 37.2848 79.9681 36.397 79.3644 35.218C78.7678 34.032 78.4695 32.5476 78.4695 30.7649C78.4695 28.968 78.7678 27.4517 79.3644 26.2159C79.9681 24.973 80.7813 24.032 81.8041 23.3928C82.8268 22.7464 83.9667 22.4233 85.2238 22.4233C86.1826 22.4233 86.971 22.5866 87.5889 22.9134C88.2139 23.233 88.711 23.62 89.0803 24.0746C89.4497 24.522 89.7302 24.9446 89.922 25.3423H90.135V22.6364H93.9383V39.2663C93.9383 40.6655 93.6045 41.8232 92.9369 42.7393C92.2693 43.6555 91.3566 44.3409 90.199 44.7955C89.0413 45.25 87.7274 45.4773 86.2572 45.4773ZM86.2892 35.7401C87.1059 35.7401 87.8019 35.5412 88.3772 35.1435C88.9525 34.7457 89.3893 34.174 89.6876 33.4283C89.9859 32.6825 90.135 31.7876 90.135 30.7436C90.135 29.7138 89.9859 28.8118 89.6876 28.0376C89.3964 27.2635 88.9632 26.6634 88.3879 26.2372C87.8197 25.804 87.1201 25.5874 86.2892 25.5874C85.4298 25.5874 84.7124 25.8111 84.1372 26.2585C83.5619 26.706 83.1286 27.3203 82.8374 28.1016C82.5463 28.8757 82.4007 29.7564 82.4007 30.7436C82.4007 31.745 82.5463 32.6222 82.8374 33.375C83.1357 34.1207 83.5725 34.7031 84.1478 35.1222C84.7302 35.5341 85.444 35.7401 86.2892 35.7401ZM97.8907 39V22.6364H101.63V25.3636H101.801C102.099 24.419 102.61 23.6911 103.335 23.1797C104.066 22.6612 104.901 22.402 105.838 22.402C106.051 22.402 106.289 22.4126 106.552 22.4339C106.822 22.4482 107.046 22.473 107.223 22.5085V26.0561C107.06 25.9993 106.801 25.9496 106.445 25.907C106.097 25.8572 105.76 25.8324 105.433 25.8324C104.73 25.8324 104.098 25.9851 103.537 26.2905C102.983 26.5888 102.546 27.0043 102.227 27.5369C101.907 28.0696 101.747 28.6839 101.747 29.38V39H97.8907ZM114.201 39.3303C113.164 39.3303 112.23 39.1456 111.399 38.7763C110.575 38.3999 109.922 37.8459 109.439 37.1143C108.963 36.3828 108.725 35.4808 108.725 34.4084C108.725 33.4851 108.896 32.7216 109.237 32.1179C109.578 31.5142 110.043 31.0312 110.632 30.669C111.222 30.3068 111.886 30.0334 112.624 29.8487C113.37 29.657 114.141 29.5185 114.936 29.4332C115.895 29.3338 116.673 29.245 117.269 29.1669C117.866 29.0817 118.299 28.9538 118.569 28.7834C118.846 28.6058 118.984 28.3324 118.984 27.9631V27.8991C118.984 27.0966 118.747 26.4751 118.271 26.0348C117.795 25.5945 117.109 25.3743 116.215 25.3743C115.27 25.3743 114.521 25.5803 113.967 25.9922C113.42 26.4041 113.051 26.8906 112.859 27.4517L109.258 26.9403C109.542 25.946 110.011 25.1151 110.664 24.4474C111.318 23.7727 112.117 23.2685 113.061 22.9347C114.006 22.5938 115.05 22.4233 116.193 22.4233C116.982 22.4233 117.766 22.5156 118.548 22.7003C119.329 22.8849 120.043 23.1903 120.689 23.6165C121.335 24.0355 121.854 24.6072 122.244 25.3317C122.642 26.0561 122.841 26.9616 122.841 28.0483V39H119.134V36.7521H119.006C118.771 37.2067 118.441 37.6328 118.015 38.0305C117.596 38.4212 117.067 38.7372 116.428 38.9787C115.796 39.2131 115.053 39.3303 114.201 39.3303ZM115.203 36.4964C115.977 36.4964 116.648 36.3437 117.216 36.0384C117.784 35.7259 118.221 35.3139 118.526 34.8026C118.839 34.2912 118.995 33.7337 118.995 33.13V31.2017C118.874 31.3011 118.668 31.3935 118.377 31.4787C118.093 31.5639 117.774 31.6385 117.418 31.7024C117.063 31.7663 116.712 31.8232 116.364 31.8729C116.016 31.9226 115.714 31.9652 115.458 32.0007C114.883 32.0788 114.368 32.2067 113.913 32.3842C113.459 32.5618 113.1 32.8104 112.837 33.13C112.575 33.4425 112.443 33.8473 112.443 34.3445C112.443 35.0547 112.703 35.5909 113.221 35.9531C113.739 36.3153 114.4 36.4964 115.203 36.4964ZM126.719 39V22.6364H130.405V25.4169H130.597C130.938 24.4794 131.502 23.7479 132.291 23.2223C133.079 22.6896 134.02 22.4233 135.114 22.4233C136.222 22.4233 137.156 22.6932 137.916 23.233C138.683 23.7656 139.222 24.4936 139.535 25.4169H139.705C140.068 24.5078 140.678 23.7834 141.538 23.2436C142.404 22.6967 143.43 22.4233 144.617 22.4233C146.122 22.4233 147.351 22.8991 148.303 23.8509C149.254 24.8026 149.73 26.1911 149.73 28.0163V39H145.863V28.6129C145.863 27.5973 145.593 26.8551 145.053 26.3864C144.514 25.9105 143.853 25.6726 143.072 25.6726C142.141 25.6726 141.413 25.9638 140.888 26.5462C140.369 27.1214 140.11 27.8707 140.11 28.794V39H136.328V28.4531C136.328 27.608 136.073 26.9332 135.561 26.429C135.057 25.9247 134.396 25.6726 133.58 25.6726C133.026 25.6726 132.521 25.8146 132.067 26.0987C131.612 26.3757 131.25 26.7699 130.98 27.2812C130.71 27.7855 130.575 28.375 130.575 29.0497V39H126.719Z" fill="white"/>
</svg>
