<svg width="1757" height="487" viewBox="0 0 1757 487" fill="none" xmlns="http://www.w3.org/2000/svg">
<path d="M1316.02 112.134L1316.02 354.252" stroke="#E6E6E6" stroke-width="2" stroke-miterlimit="10" stroke-dasharray="14 14"/>
<path d="M1316.02 359.251L1316.02 349.252" stroke="#E6E6E6" stroke-width="2"/>
<path d="M1316.02 117.135L1316.02 107.136" stroke="#E6E6E6" stroke-width="2"/>
<path d="M957 107L957 487" stroke="#E6E6E6" stroke-width="2" stroke-miterlimit="10"/>
<path d="M813 5L813 337" stroke="#E6E6E6" stroke-width="2" stroke-miterlimit="10"/>
<path d="M1532 5L1532 337" stroke="#E6E6E6" stroke-width="2" stroke-miterlimit="10"/>
<path d="M88 5L88 337" stroke="#E6E6E6" stroke-width="2" stroke-miterlimit="10"/>
<path d="M741 34L741 461" stroke="#E6E6E6" stroke-width="2" stroke-miterlimit="10"/>
<path d="M1460 34L1460 461" stroke="#E6E6E6" stroke-width="2" stroke-miterlimit="10"/>
<path d="M526 41L526 393" stroke="#E6E6E6" stroke-width="2" stroke-miterlimit="10"/>
<path d="M1172 73L1172 393" stroke="#E6E6E6" stroke-width="2" stroke-miterlimit="10"/>
<path d="M1245 337H1243V308.993C1243.17 308.997 1243.33 309 1243.5 309C1244 309 1244.5 308.981 1245 308.948V337ZM1243.5 278C1244.01 278 1244.51 278.047 1245 278.134V294.865C1244.51 294.952 1244.01 295 1243.5 295C1243.33 295 1243.17 294.994 1243 294.984V278.015C1243.17 278.005 1243.33 278 1243.5 278ZM1243.5 177C1244.01 177 1244.51 177.047 1245 177.134V187.178H1243V177.015C1243.17 177.005 1243.33 177 1243.5 177ZM1245 163.051C1244.5 163.018 1244 163 1243.5 163C1243.33 163 1243.17 163.002 1243 163.006V5H1245V163.051Z" fill="#E6E6E6"/>
<path d="M1387 182.948C1387.5 182.981 1388 183 1388.5 183C1388.67 183 1388.83 182.997 1389 182.993V422H1387V182.948ZM1389 168.984C1388.83 168.994 1388.67 169 1388.5 169C1387.99 169 1387.49 168.952 1387 168.865V158.122H1389V168.984ZM1389 70.0059C1388.83 70.0022 1388.67 70 1388.5 70C1388 70 1387.5 70.0181 1387 70.0508V41H1389V70.0059Z" fill="#E6E6E6"/>
<path d="M381 303.948C381.496 303.981 381.996 304 382.5 304C382.667 304 382.834 303.997 383 303.993V487H381V303.948ZM382.5 273C382.668 273 382.835 273.005 383 273.015V289.984C382.835 289.994 382.668 290 382.5 290C381.988 290 381.487 289.952 381 289.865V273.134C381.487 273.047 381.988 273 382.5 273ZM383 207.015V213.611H381V207.134C381.487 207.047 381.988 207 382.5 207C382.668 207 382.835 207.005 383 207.015ZM383 193.006C382.834 193.002 382.667 193 382.5 193C381.996 193 381.496 193.018 381 193.051V107H383V193.006Z" fill="#E6E6E6"/>
<path d="M598 487H596V435.993C596.166 435.997 596.333 436 596.5 436C597.004 436 597.504 435.981 598 435.948V487ZM598 421.865C597.513 421.952 597.012 422 596.5 422C596.332 422 596.165 421.994 596 421.984V411.352H598V421.865ZM596.5 273C597.012 273 597.513 273.047 598 273.134V276.593H596V273.015C596.165 273.005 596.332 273 596.5 273ZM598 259.051C597.504 259.018 597.004 259 596.5 259C596.333 259 596.166 259.002 596 259.006V107H598V259.051Z" fill="#E6E6E6"/>
<path d="M10 487H8V435.993C8.16624 435.997 8.33289 436 8.5 436C9.0041 436 9.50416 435.981 10 435.948V487ZM10 421.865C9.51293 421.952 9.012 422 8.5 422C8.33213 422 8.16546 421.994 8 421.984V411.352H10V421.865ZM8.5 273C9.01194 273 9.51299 273.047 10 273.134V276.593H8V273.015C8.16545 273.005 8.33215 273 8.5 273ZM10 259.051C9.50418 259.018 9.00408 259 8.5 259C8.3329 259 8.16623 259.002 8 259.006V107H10V259.051Z" fill="#E6E6E6"/>
<path d="M453.766 4.99805L453.766 337.107" stroke="#E6E6E6" stroke-width="2" stroke-miterlimit="10" stroke-dasharray="14 14"/>
<path d="M453.766 9.99897L453.766 0" stroke="#E6E6E6" stroke-width="2"/>
<path d="M453.766 342.109L453.766 332.11" stroke="#E6E6E6" stroke-width="2"/>
<path d="M669.328 4.99805L669.328 431.383" stroke="#E6E6E6" stroke-width="2" stroke-miterlimit="10" stroke-dasharray="14 14"/>
<path d="M669.328 9.99897L669.328 0" stroke="#E6E6E6" stroke-width="2"/>
<path d="M669.328 436.38L669.328 426.381" stroke="#E6E6E6" stroke-width="2"/>
<path d="M310.057 4.99805L310.057 431.383" stroke="#E6E6E6" stroke-width="2" stroke-miterlimit="10" stroke-dasharray="14 14"/>
<path d="M310.057 9.99897L310.057 0" stroke="#E6E6E6" stroke-width="2"/>
<path d="M310.057 436.38L310.057 426.381" stroke="#E6E6E6" stroke-width="2"/>
<path d="M1100.45 265.686L1100.45 434.24" stroke="#E6E6E6" stroke-width="2" stroke-miterlimit="10" stroke-dasharray="14 14"/>
<path d="M1100.45 270.686L1100.45 260.688" stroke="#E6E6E6" stroke-width="2"/>
<path d="M1100.45 439.241L1100.45 429.242" stroke="#E6E6E6" stroke-width="2"/>
<path d="M1756 265.686L1756 434.24" stroke="#E6E6E6" stroke-width="2" stroke-miterlimit="10" stroke-dasharray="14 14"/>
<path d="M1756 270.686L1756 260.688" stroke="#E6E6E6" stroke-width="2"/>
<path d="M1756 439.241L1756 429.242" stroke="#E6E6E6" stroke-width="2"/>
<path d="M159.457 265.686L159.457 434.24" stroke="#E6E6E6" stroke-width="2" stroke-miterlimit="10" stroke-dasharray="14 14"/>
<path d="M159.457 270.686L159.457 260.688" stroke="#E6E6E6" stroke-width="2"/>
<path d="M159.457 439.241L159.457 429.242" stroke="#E6E6E6" stroke-width="2"/>
<path d="M884.891 52.1367L884.891 265.686" stroke="#E6E6E6" stroke-width="2" stroke-miterlimit="10" stroke-dasharray="14 14"/>
<path d="M884.891 270.685L884.891 260.687" stroke="#E6E6E6" stroke-width="2"/>
<path d="M884.891 57.1376L884.891 47.1387" stroke="#E6E6E6" stroke-width="2"/>
<path d="M1603.43 52.1367L1603.43 265.686" stroke="#E6E6E6" stroke-width="2" stroke-miterlimit="10" stroke-dasharray="14 14"/>
<path d="M1603.43 270.685L1603.43 260.687" stroke="#E6E6E6" stroke-width="2"/>
<path d="M1603.43 57.1376L1603.43 47.1387" stroke="#E6E6E6" stroke-width="2"/>
<path d="M232 393H230V124.993C230.166 124.997 230.333 125 230.5 125C231.004 125 231.504 124.981 232 124.948V393ZM232 110.865C231.513 110.952 231.012 111 230.5 111C230.332 111 230.165 110.994 230 110.984V95.4863H232V110.865ZM230.5 35C231.012 35 231.513 35.0471 232 35.1338V43.3779H230V35.0146C230.165 35.0051 230.332 35 230.5 35ZM232 21.0508C231.504 21.0181 231.004 21 230.5 21C230.333 21 230.166 21.0022 230 21.0059V5H232V21.0508Z" fill="#E6E6E6"/>
<path d="M1030 393H1028V124.993C1028.17 124.997 1028.33 125 1028.5 125C1029 125 1029.5 124.981 1030 124.948V393ZM1030 110.865C1029.51 110.952 1029.01 111 1028.5 111C1028.33 111 1028.17 110.994 1028 110.984V95.4863H1030V110.865ZM1028.5 35C1029.01 35 1029.51 35.0471 1030 35.1338V43.3779H1028V35.0146C1028.17 35.0051 1028.33 35 1028.5 35ZM1030 21.0508C1029.5 21.0181 1029 21 1028.5 21C1028.33 21 1028.17 21.0022 1028 21.0059V5H1030V21.0508Z" fill="#E6E6E6"/>
<path d="M1683 124.948C1683.5 124.981 1684 125 1684.5 125C1684.67 125 1684.83 124.997 1685 124.993V393H1683V124.948ZM1685 110.984C1684.83 110.994 1684.67 111 1684.5 111C1683.99 111 1683.49 110.952 1683 110.865V95.4863H1685V110.984ZM1684.5 35C1684.67 35 1684.83 35.0051 1685 35.0146V43.3779H1683V35.1338C1683.49 35.0471 1683.99 35 1684.5 35ZM1685 21.0059C1684.83 21.0022 1684.67 21 1684.5 21C1684 21 1683.5 21.0181 1683 21.0508V5H1685V21.0059Z" fill="#E6E6E6"/>
<path d="M1676 43.5C1676 48.1944 1679.81 52 1684.5 52C1689.19 52 1693 48.1944 1693 43.5C1693 38.8056 1689.19 35 1684.5 35C1679.81 35 1676 38.8056 1676 43.5Z" fill="#2CB9FF"/>
<path d="M1676 102.5C1676 107.194 1679.81 111 1684.5 111C1689.19 111 1693 107.194 1693 102.5C1693 97.8056 1689.19 94 1684.5 94C1679.81 94 1676 97.8056 1676 102.5Z" fill="#2CB9FF"/>
<path d="M1380 92.5C1380 97.1944 1383.81 101 1388.5 101C1393.19 101 1397 97.1944 1397 92.5C1397 87.8056 1393.19 84 1388.5 84C1383.81 84 1380 87.8056 1380 92.5Z" fill="#2CB9FF"/>
<path d="M1380 160.5C1380 165.194 1383.81 169 1388.5 169C1393.19 169 1397 165.194 1397 160.5C1397 155.806 1393.19 152 1388.5 152C1383.81 152 1380 155.806 1380 160.5Z" fill="#2CB9FF"/>
<path d="M1235 185.5C1235 190.194 1238.81 194 1243.5 194C1248.19 194 1252 190.194 1252 185.5C1252 180.806 1248.19 177 1243.5 177C1238.81 177 1235 180.806 1235 185.5Z" fill="#2CB9FF"/>
<path d="M1235 286.5C1235 291.194 1238.81 295 1243.5 295C1248.19 295 1252 291.194 1252 286.5C1252 281.806 1248.19 278 1243.5 278C1238.81 278 1235 281.806 1235 286.5Z" fill="#2CB9FF"/>
<path d="M1020 43.5C1020 48.1944 1023.81 52 1028.5 52C1033.19 52 1037 48.1944 1037 43.5C1037 38.8056 1033.19 35 1028.5 35C1023.81 35 1020 38.8056 1020 43.5Z" fill="#2CB9FF"/>
<path d="M1020 102.5C1020 107.194 1023.81 111 1028.5 111C1033.19 111 1037 107.194 1037 102.5C1037 97.8056 1033.19 94 1028.5 94C1023.81 94 1020 97.8056 1020 102.5Z" fill="#2CB9FF"/>
<path d="M588 281.5C588 286.194 591.806 290 596.5 290C601.194 290 605 286.194 605 281.5C605 276.806 601.194 273 596.5 273C591.806 273 588 276.806 588 281.5Z" fill="#2CB9FF"/>
<path d="M588 413.5C588 418.194 591.806 422 596.5 422C601.194 422 605 418.194 605 413.5C605 408.806 601.194 405 596.5 405C591.806 405 588 408.806 588 413.5Z" fill="#2CB9FF"/>
<path d="M374 215.5C374 220.194 377.806 224 382.5 224C387.194 224 391 220.194 391 215.5C391 210.806 387.194 207 382.5 207C377.806 207 374 210.806 374 215.5Z" fill="#2CB9FF"/>
<path d="M374 281.5C374 286.194 377.806 290 382.5 290C387.194 290 391 286.194 391 281.5C391 276.806 387.194 273 382.5 273C377.806 273 374 276.806 374 281.5Z" fill="#2CB9FF"/>
<path d="M222 43.5C222 48.1944 225.806 52 230.5 52C235.194 52 239 48.1944 239 43.5C239 38.8056 235.194 35 230.5 35C225.806 35 222 38.8056 222 43.5Z" fill="#2CB9FF"/>
<path d="M222 102.5C222 107.194 225.806 111 230.5 111C235.194 111 239 107.194 239 102.5C239 97.8056 235.194 94 230.5 94C225.806 94 222 97.8056 222 102.5Z" fill="#2CB9FF"/>
<path d="M0 281.5C0 286.194 3.80558 290 8.5 290C13.1944 290 17 286.194 17 281.5C17 276.806 13.1944 273 8.5 273C3.80558 273 0 276.806 0 281.5Z" fill="#2CB9FF"/>
<path d="M0 413.5C0 418.194 3.80558 422 8.5 422C13.1944 422 17 418.194 17 413.5C17 408.806 13.1944 405 8.5 405C3.80558 405 0 408.806 0 413.5Z" fill="#2CB9FF"/>
</svg>
